<svg width="660" height="530" viewBox="0 0 660 530" fill="none" xmlns="http://www.w3.org/2000/svg">
  <path
    d="M451.5 199.5L456.43 223.657C456.477 223.885 456.543 224.109 456.629 224.326L478.721 280.292C478.905 280.76 479 281.258 479 281.761V325C479 327.209 480.791 329 483 329H521.516C521.837 329 522.158 329.039 522.47 329.115L550.5 336L581.19 340.721C584.519 341.234 585.763 345.381 583.265 347.641L569.412 360.175C568.831 360.7 568.5 361.447 568.5 362.23V362.23C568.5 363.76 569.74 365 571.27 365H571.752C572.555 365 573.33 365.297 573.928 365.835L576.676 368.308C577.519 369.067 578 370.148 578 371.281V375.739C578 376.56 577.748 377.361 577.277 378.033L575.223 380.967C574.752 381.639 574.5 382.44 574.5 383.261V390.289C574.5 391.079 574.734 391.851 575.172 392.508L579.241 398.611C580.022 399.783 580.129 401.278 579.524 402.55L577.428 406.951C576.401 409.108 573.601 409.724 571.219 409.914C570.286 409.988 569.34 410.3 568.5 411C566.795 412.421 562.802 413.253 559.497 413.675C557.503 413.93 555.885 415.499 555.731 417.503L555.273 423.457C555.117 425.478 553.475 427.063 551.449 427.147L498.335 429.342C496.192 429.43 494.5 431.193 494.5 433.338V484.5C494.333 487.167 491.9 492.6 483.5 493C475.68 493.372 469.276 492.618 466.546 492.109C466.182 492.041 465.812 492.024 465.443 491.996C462.84 491.794 458.628 489.044 459 479C459.306 470.751 460.019 461.782 460.562 455.926C460.782 453.558 458.926 451.5 456.549 451.5H441.114C439.791 451.5 438.554 452.154 437.809 453.247L425.492 471.312C424.588 472.638 422.977 473.295 421.403 472.981L415.441 471.788C413.267 471.353 411.862 469.234 412.306 467.063L419.016 434.303C419.524 431.822 417.629 429.5 415.098 429.5H407.715C405.62 429.5 403.88 427.884 403.726 425.795L402.031 402.919C402.01 402.641 402.019 402.36 402.057 402.083L406.5 369.5V349.5L409.33 270.735C409.419 268.259 407.259 266.299 404.804 266.626L387 269H357.867C357.623 269 357.379 268.978 357.139 268.933L257.5 250.5L239.878 248.119C239.3 248.04 238.745 247.837 238.254 247.522L76.3175 143.666C75.2626 142.989 74.8365 141.659 75.3019 140.495V140.495C75.919 138.952 77.8003 138.37 79.1814 139.294L146.991 184.653C148.897 185.928 151.484 185.342 152.655 183.369L176.953 142.423C177.311 141.818 177.504 141.13 177.512 140.427L178.46 57.9797C178.482 56.0515 180.052 54.5 181.98 54.5V54.5C183.924 54.5 185.5 56.076 185.5 58.0201V69C185.5 71.2091 187.291 73 189.5 73H230.286C232.38 73 234.12 74.6154 234.275 76.704L244.218 210.698C244.376 212.827 246.177 214.456 248.311 214.401L320.594 212.524C321.19 212.508 321.783 212.626 322.328 212.87L348.492 224.55C349.152 224.845 349.879 224.955 350.596 224.87L390.649 220.101C391.21 220.035 391.75 219.85 392.235 219.559L401.314 214.111C402.496 213.402 404 214.254 404 215.632V215.632C404 216.648 404.851 217.456 405.865 217.403L438.708 215.697C440.833 215.587 442.5 213.831 442.5 211.702V197.5"
    stroke="black" stroke-width="4" stroke-linecap="round" />
</svg>