<svg width="660" height="530" viewBox="0 0 660 530" fill="none" xmlns="http://www.w3.org/2000/svg">
  <path
    d="M116.5 96V116.597C116.5 119.5 119.495 121.436 122.142 120.244L153.291 106.22C154.899 105.496 156.792 105.911 157.95 107.242L185.637 139.061C187.491 141.191 186.614 144.519 183.951 145.458L182.836 145.852C181.677 146.261 180.394 146.115 179.357 145.455L177.256 144.118C176.156 143.417 174.782 143.298 173.577 143.797L155.779 151.177C155.265 151.39 154.802 151.708 154.418 152.11L145.111 161.86C144.709 162.281 144.219 162.61 143.676 162.823L133.779 166.695C133.265 166.896 132.799 167.201 132.408 167.592L122.725 177.275C122.249 177.751 121.662 178.099 121.016 178.287L110.954 181.222C110.327 181.405 109.666 181.431 109.027 181.3L95.111 178.435C93.7932 178.163 92.4273 178.573 91.476 179.524L90.7231 180.277C89.9426 181.057 89.5142 182.121 89.5765 183.223C90.4 197.803 96.0233 225.904 97.5935 233.543C97.8492 234.787 97.5021 236.06 96.6584 237.009L87.2043 247.645C86.4389 248.506 86.0819 249.656 86.2248 250.799L86.8129 255.503C86.9335 256.468 87.4013 257.356 88.1288 258.001L108.549 276.1C108.848 276.365 109.106 276.674 109.313 277.016L123.394 300.18C124.085 301.318 124.165 302.725 123.607 303.934L121.637 308.204C121.546 308.401 121.471 308.605 121.413 308.814L115 332L110.262 343.845C110.089 344.278 109.993 344.739 109.978 345.205L109 376.5L107.606 389.511C107.536 390.161 107.627 390.817 107.869 391.423L112.965 404.163C113.311 405.027 113.947 405.744 114.764 406.189L117.24 407.54C118.348 408.144 119.675 408.19 120.822 407.665L130.332 403.306C130.774 403.104 131.248 402.983 131.733 402.951L145.396 402.04C145.796 402.014 146.191 401.927 146.565 401.783L165.142 394.638C165.38 394.546 165.626 394.478 165.878 394.433L185.323 390.976C186.939 390.689 188.566 391.417 189.428 392.814L200.55 410.839C201.649 412.621 203.938 413.254 205.797 412.289L268 380L284 371.5L316 350.5L343.5 333.5L360.238 323.162C360.412 323.054 360.578 322.933 360.734 322.8L384.5 302.5L409.5 279L419.5 268L438.5 242L450.366 223.981C451.292 222.575 450.995 220.696 449.681 219.645V219.645C448.223 218.479 446.087 218.773 444.998 220.289L416.5 260L387 291L355.5 317L321.5 338.5L294.636 355.962C292.871 357.109 290.519 356.692 289.256 355.008L286.036 350.714C284.861 349.148 282.726 348.662 280.99 349.565L274.811 352.778C272.946 353.748 272.15 355.995 272.988 357.922L281.5 377.5L311.679 433.067C312.416 434.424 314.095 434.952 315.476 434.262V434.262C316.876 433.562 317.455 431.868 316.776 430.458L313.119 422.862C312.207 420.969 312.916 418.693 314.742 417.652L365 389L388 377.5L405.5 368.5L415.013 362.316C415.336 362.107 415.627 361.851 415.877 361.558L442.638 330.183C443.652 328.994 443.469 327.198 442.235 326.238V326.238C441.012 325.287 440.819 323.513 441.808 322.321L481.5 274.5L505.371 236.119C506.256 234.696 508.154 234.308 509.527 235.269V235.269C510.879 236.215 512.747 235.854 513.649 234.471L576.913 137.434C577.809 136.06 579.611 135.606 581.051 136.391V136.391C582.647 137.262 583.173 139.301 582.199 140.836L530 223L507 251L500.521 259.999C499.16 261.888 499.695 264.536 501.681 265.749L505.806 268.27C506.579 268.743 507.489 268.939 508.388 268.826L513.059 268.243C514.284 268.09 515.511 268.511 516.383 269.383L519.5 272.5"
    stroke="black" stroke-width="4" stroke-linecap="round" stroke-linejoin="round" />
</svg>