<svg width="32" height="32" viewBox="0 0 32 32" fill="none" xmlns="http://www.w3.org/2000/svg">
<g clip-path="url(#clip0_3_20)">
<path fill-rule="evenodd" clip-rule="evenodd" d="M16.0868 28.1664L16.089 28.1529H16.2972L17.9268 17.8431H21.8179L24.9774 28.1529H28.3696L24.8776 17.5438C26.4296 17.1003 27.7377 16.2911 28.802 15.116C29.8662 13.9409 30.5203 12.5219 30.7641 10.859C30.9859 9.46224 30.875 8.2428 30.4316 7.20073C30.0103 6.15867 29.3008 5.34941 28.3031 4.77295C27.3275 4.17432 26.1192 3.875 24.678 3.875H17.1619L17.1597 3.88858H15.9538L12.2955 11.7041C11.9629 12.4357 11.6525 13.1563 11.3643 13.8658C11.076 14.5531 10.8543 15.0852 10.6991 15.4621C10.6548 15.0852 10.5772 14.5531 10.4663 13.8658C10.3776 13.1563 10.2778 12.4468 10.167 11.7373L8.90321 3.88858H5.04535L1.1875 28.1664H4.11415L4.16804 27.8264L4.1569 28.068L4.84613 23.548L5.51096 19.3532C5.6309 18.6186 5.74071 17.8433 5.84038 17.0276L7.12113 8.62819L8.80344 17.5241H11.9629L16.4951 8.07123L15.401 14.9566C15.3288 15.2811 15.2581 15.6048 15.1888 15.9277C14.945 17.1693 14.7343 18.3112 14.557 19.3532L13.1601 28.1664H16.0868ZM18.3591 15.1492H22.8821C24.1238 15.1492 25.1769 14.7612 26.0416 13.9852C26.9285 13.1871 27.4717 12.145 27.6712 10.859C27.8929 9.55092 27.6823 8.50886 27.0393 7.73285C26.4185 6.95685 25.4873 6.56884 24.2457 6.56884H19.7227L18.3591 15.1492Z" fill="#CA3A31"/>
</g>
<defs>
<clipPath id="clip0_3_20">
<rect width="32" height="32" fill="white"/>
</clipPath>
</defs>
</svg>
